<svg width="41" height="40" viewBox="0 0 41 40" fill="none" xmlns="http://www.w3.org/2000/svg">
<g clip-path="url(#clip0_2681_8351)">
<path d="M0.520756 21.1603C0.548695 19.5861 1.28228 18.3927 2.69597 17.6196C2.91389 17.4999 2.97935 17.371 2.99372 17.141C3.22361 13.4449 4.52714 10.1528 6.92587 7.27253C11.5669 1.69924 19.5333 -0.53458 26.411 2.03878C33.4826 4.6844 37.3278 9.81714 38.0143 17.1705C38.035 17.3888 38.0989 17.5077 38.3032 17.6142C39.2699 18.1161 39.934 18.8791 40.2765 19.8961C40.3659 20.1634 40.4266 20.4408 40.5 20.7143V26.1423C40.4753 26.1982 40.4377 26.2526 40.4266 26.3117C40.1017 28.0273 38.8077 29.2899 37.0524 29.6006C35.1837 29.9316 33.7149 28.7638 33.7077 26.9239C33.699 24.5596 33.6998 22.1945 33.7085 19.8301C33.7133 18.4517 34.4868 17.5209 35.8678 17.1907C35.942 17.1736 36.0147 17.148 36.0817 17.1278C35.6946 9.51257 28.9279 2.54693 19.855 2.88958C11.3346 3.21125 5.23199 10.0098 4.93983 17.134C5.04919 17.1627 5.16254 17.1938 5.27669 17.221C6.43654 17.4992 7.27789 18.4556 7.28907 19.6172C7.31142 22.137 7.31142 24.6567 7.28827 27.1765C7.27789 28.3186 6.44293 29.2759 5.30703 29.5571C5.16973 29.5913 5.03164 29.6224 4.88157 29.6581C4.88157 30.3256 4.8672 30.9712 4.88475 31.6154C4.93504 33.4475 6.33357 35.0248 8.20146 35.2058C9.33018 35.3161 10.4788 35.226 11.6387 35.226C12.3683 33.9346 13.0348 33.4467 14.3048 33.4032C15.3521 33.3675 16.4034 33.3589 17.4499 33.4102C19.0831 33.4894 20.2701 34.752 20.2166 36.2811C20.1623 37.8351 18.9275 38.9982 17.2982 39.0169C16.3419 39.0278 15.3865 39.0254 14.4302 39.0177C13.1985 39.0076 12.302 38.4543 11.756 37.386C11.6539 37.1863 11.5405 37.1374 11.333 37.1389C10.4437 37.1467 9.55368 37.156 8.66444 37.1374C5.84105 37.0783 3.47107 35.1056 3.05838 32.3947C2.92267 31.5074 2.98174 30.5913 2.97057 29.6884C2.96738 29.4336 2.9099 29.2844 2.65686 29.143C1.27989 28.3753 0.553486 27.1998 0.522354 25.6567C0.49202 24.1587 0.494415 22.6583 0.520756 21.1603ZM35.6219 19.7959C35.6171 20.3041 35.6163 20.813 35.6163 21.3211C35.6163 21.9404 35.6179 22.5589 35.6179 23.1781C35.6179 23.2519 35.6179 23.3265 35.6179 23.4003C35.6179 23.7321 35.6179 24.0647 35.6179 24.3964C35.6171 25.227 35.6163 26.0576 35.6195 26.8882C35.6219 27.5797 35.9309 27.8416 36.6445 27.774C37.6774 27.6768 38.5515 26.788 38.5706 25.7297C38.6002 24.1672 38.6042 22.6031 38.569 21.0406C38.5435 19.9218 37.5736 19.0182 36.4705 19.0003C35.9245 18.991 35.6259 19.2567 35.6219 19.7959ZM14.399 37.156C14.8883 37.1653 15.3777 37.1576 15.8678 37.1576C16.3579 37.1576 16.8209 37.1653 17.2966 37.156C17.8866 37.1436 18.2897 36.7644 18.3032 36.2267C18.3168 35.6922 17.9241 35.2765 17.3358 35.2656C16.3435 35.247 15.3505 35.247 14.3583 35.2648C13.77 35.2757 13.3853 35.6852 13.3948 36.2283C13.4044 36.7652 13.8059 37.1444 14.399 37.156ZM2.42856 23.4034C2.42856 23.5192 2.42776 23.635 2.42696 23.7515C2.42457 24.3848 2.41659 25.018 2.43095 25.6512C2.4573 26.8323 3.408 27.774 4.56306 27.7856C5.06675 27.7911 5.38206 27.53 5.38366 27.0444C5.39324 24.6155 5.39324 22.1867 5.38525 19.7586C5.38366 19.2497 5.07235 18.9917 4.53992 19.0003C3.40721 19.0182 2.46129 19.956 2.43176 21.1168C2.41579 21.7461 2.42377 22.3763 2.42696 23.0056C2.42696 23.1385 2.42856 23.2706 2.42856 23.4034Z" fill="white"/>
<path d="M10.2697 14.0446C10.3032 11.6842 12.0394 10.0548 14.4661 10.0502C18.4884 10.0416 22.5108 10.0424 26.5339 10.0494C28.9925 10.054 30.7255 11.7191 30.743 14.1146C30.763 16.7112 30.7478 19.3087 30.7478 21.9061C30.7478 22.8828 30.4661 23.7678 29.8195 24.5238C29.0069 25.4725 27.9444 25.9301 26.6249 25.9775C26.6249 26.6317 26.6457 27.2502 26.6169 27.8671C26.601 28.1966 26.561 28.5478 26.4285 28.8453C25.8865 30.0683 24.2717 30.3713 23.2731 29.4359C22.1635 28.3962 21.0763 27.3341 19.9955 26.2665C19.7704 26.0435 19.5445 25.9635 19.2292 25.9658C17.6495 25.9798 16.0697 25.9775 14.49 25.9713C12.0466 25.962 10.2992 24.3264 10.2689 21.9527C10.2346 19.3172 10.2322 16.6801 10.2689 14.0446H10.2697ZM12.1735 21.875C12.1783 23.2557 13.0779 24.1081 14.5052 24.1112C16.2701 24.1151 18.0358 24.1228 19.8007 24.105C20.2765 24.0995 20.6301 24.2503 20.9606 24.5774C22.0677 25.6737 23.1957 26.7506 24.3164 27.8337C24.4138 27.9285 24.5191 28.0155 24.6852 28.1632C24.6979 27.9456 24.7115 27.8236 24.7115 27.7008C24.7139 26.8353 24.7067 25.9697 24.7155 25.1042C24.7219 24.4764 25.0859 24.1314 25.7301 24.112C26.1803 24.0988 26.6361 24.1205 27.0783 24.0545C28.0107 23.9162 28.6964 23.1858 28.8081 22.2767C28.8217 22.161 28.8337 22.0452 28.8337 21.9294C28.8352 19.3195 28.844 16.7104 28.8313 14.1013C28.8249 12.7595 27.9292 11.911 26.5435 11.9095C22.5219 11.9056 18.5012 11.9056 14.4796 11.9095C13.0707 11.9095 12.1791 12.7587 12.1735 14.1247C12.1631 16.7081 12.1639 19.2916 12.1735 21.875Z" fill="white"/>
<path d="M2.42775 23.4037C2.42775 23.5194 2.42775 23.6352 2.42775 23.7518C2.42775 23.6352 2.42935 23.5194 2.42935 23.4037C2.42935 23.2708 2.42855 23.1387 2.42775 23.0059C2.42775 23.1387 2.42775 23.2708 2.42775 23.4037Z" fill="white"/>
<path d="M19.0903 18.1556C19.0911 18.903 19.7488 19.5378 20.5152 19.5301C21.2703 19.5231 21.9041 18.91 21.9185 18.1735C21.9328 17.4283 21.2855 16.7865 20.5136 16.7803C19.7472 16.7733 19.0895 17.4081 19.0903 18.1556Z" fill="white"/>
<path d="M23.7457 18.1366C23.7361 18.8973 24.3635 19.5243 25.1394 19.5305C25.9113 19.5367 26.5571 18.9089 26.5571 18.1545C26.5571 17.4 25.9416 16.801 25.1785 16.7808C24.4082 16.7598 23.7552 17.3775 23.7457 18.1366Z" fill="white"/>
<path d="M14.4509 18.154C14.4509 18.9077 15.0991 19.5363 15.8694 19.5301C16.6461 19.5246 17.2719 18.8976 17.2631 18.1362C17.2535 17.391 16.6333 16.7865 15.8702 16.7803C15.0991 16.7733 14.4517 17.4004 14.4509 18.154Z" fill="white"/>
</g>
<defs>
<clipPath id="clip0_2681_8351">
<rect width="40" height="38.0488" fill="white" transform="matrix(-1 0 0 1 40.5 0.975586)"/>
</clipPath>
</defs>
</svg>
