<svg width="40" height="40" viewBox="0 0 40 40" fill="none" xmlns="http://www.w3.org/2000/svg">
<g clip-path="url(#clip0_2681_8342)">
<path d="M0.522884 18.7127C0.551105 17.3989 1.16056 16.3894 2.27803 15.6936C2.99886 15.2449 3.79824 15.1556 4.62204 15.1999C4.84782 15.2121 4.95232 15.1389 5.0286 14.9176C5.19718 14.4277 5.3955 13.9463 5.60069 13.4702C5.91266 12.7468 5.91953 12.7499 5.36041 12.1639C3.96606 10.702 3.94394 8.58468 5.32838 7.12201C5.94775 6.46812 6.58086 5.82415 7.24676 5.21909C8.60069 3.98913 10.635 3.99294 11.9981 5.21298C12.2513 5.43883 12.4481 5.72801 12.6472 5.9592C13.262 5.69138 13.7532 5.38924 14.2857 5.26639C15.0568 5.08785 15.2391 4.68727 15.2292 3.92504C15.2094 2.27619 16.5153 0.788343 18.1575 0.591489C19.2094 0.464831 20.2841 0.501455 21.3474 0.517478C22.9989 0.54342 24.4237 1.75583 24.7319 3.38026C24.8089 3.7877 24.8074 4.21269 24.8059 4.62929C24.8051 4.86277 24.8852 4.95585 25.1011 5.02834C25.5564 5.1817 26.0393 5.31065 26.4375 5.5632C27.0507 5.95233 27.4222 5.81652 27.9249 5.31446C29.2994 3.94335 31.41 3.95708 32.8341 5.28089C33.5122 5.91113 34.1705 6.56578 34.7937 7.25019C35.587 8.12078 35.841 9.16609 35.632 10.3251C35.4703 11.217 34.9699 11.906 34.3139 12.4935C34.1064 12.6789 34.095 12.8285 34.2208 13.0726C34.4397 13.4999 34.619 13.9486 34.7975 14.3957C35.1102 15.1793 35.1049 15.1816 35.9386 15.1984C37.6579 15.2327 39.0439 16.3658 39.4245 18.0474C39.4405 18.1176 39.4741 18.184 39.5 18.2519V21.7556C39.4619 21.8731 39.4184 21.9891 39.3871 22.1081C38.9714 23.6906 37.6106 24.7694 35.9783 24.8084C35.1041 24.8297 35.1079 24.8305 34.786 25.6461C34.6419 26.0108 34.4893 26.3733 34.3261 26.7296C34.0797 27.2667 34.069 27.2698 34.5053 27.6956C35.0728 28.2495 35.484 28.8881 35.6304 29.6786C35.844 30.8368 35.5885 31.8821 34.7967 32.7535C34.1751 33.4379 33.5168 34.0925 32.8394 34.7228C31.4039 36.0573 29.3185 36.0313 27.8852 34.6892C27.6739 34.4916 27.484 34.1826 27.2414 34.133C27.021 34.088 26.7449 34.3329 26.4886 34.4374C26.0317 34.6244 25.5778 34.8235 25.1095 34.9746C24.8669 35.0532 24.796 35.1676 24.8089 35.4072C24.8547 36.2175 24.7586 37.0026 24.3276 37.7153C23.8112 38.5691 23.0759 39.1299 22.1087 39.384C21.9897 39.4152 21.8745 39.461 21.7578 39.4999H18.2551C18.1743 39.4725 18.095 39.4389 18.0133 39.4175C16.619 39.0559 15.6915 38.1937 15.3223 36.8004C15.201 36.3434 15.2193 35.8459 15.2071 35.3668C15.201 35.1516 15.1331 35.0608 14.9333 34.9906C14.4558 34.8243 13.9828 34.6389 13.5183 34.4374C12.7487 34.104 12.7517 34.0956 12.1491 34.6671C10.6983 36.0428 8.5923 36.0634 7.13692 34.6923C6.47178 34.0666 5.82113 33.4226 5.20938 32.7458C4.42982 31.8829 4.17658 30.849 4.37719 29.7038C4.53585 28.7966 5.04386 28.0977 5.70976 27.5018C5.90503 27.3263 5.9241 27.1882 5.80206 26.9532C5.58619 26.5388 5.41533 26.1001 5.23379 25.6683C5.12166 25.4004 5.09649 25.0197 4.89893 24.8847C4.68688 24.7397 4.31922 24.8168 4.01945 24.8091C2.29024 24.7626 0.811974 23.5403 0.59306 21.8266C0.462624 20.8018 0.500763 19.7504 0.522884 18.7127ZM2.79977 21.2154C2.81045 21.9685 3.34897 22.5079 4.09802 22.5232C4.61823 22.5346 5.13921 22.5232 5.65942 22.5278C6.33753 22.5346 6.73265 22.8246 6.91114 23.4693C7.23455 24.6352 7.69146 25.7438 8.29024 26.796C8.63501 27.401 8.57094 27.8497 8.0881 28.3449C7.72502 28.7172 7.34592 29.0751 6.98894 29.4527C6.44813 30.025 6.44889 30.7628 6.99504 31.3259C7.55187 31.8997 8.11632 32.4658 8.69146 33.0221C9.2521 33.5645 9.99504 33.56 10.5641 33.0175C10.931 32.668 11.2811 32.2995 11.6434 31.9439C12.1575 31.4404 12.6037 31.3717 13.2216 31.7242C14.2735 32.3247 15.3818 32.7802 16.5488 33.1022C17.1789 33.2761 17.4733 33.6698 17.4825 34.3214C17.4886 34.7907 17.4825 35.2607 17.484 35.7299C17.487 36.7058 17.9897 37.2125 18.9539 37.2155H20.0202C20.2742 37.2147 20.5282 37.2186 20.7822 37.2186C20.934 37.2186 21.0866 37.217 21.2384 37.2132C21.9676 37.1934 22.5076 36.6578 22.5252 35.9314C22.5374 35.411 22.5252 34.8906 22.5297 34.3703C22.5351 33.6668 22.8196 33.283 23.4908 33.0953C24.6434 32.7726 25.7403 32.3216 26.7815 31.7288C27.4146 31.3686 27.8593 31.4411 28.3886 31.9638C28.7403 32.3117 29.0835 32.6688 29.4413 33.0106C30.024 33.5676 30.7654 33.5661 31.3421 33.003C31.905 32.4536 32.4619 31.8974 33.0103 31.3335C33.5717 30.7575 33.5671 30.0158 33.0057 29.4337C32.6533 29.0682 32.2864 28.7172 31.9317 28.354C31.4458 27.8558 31.3764 27.4056 31.7174 26.8059C32.3207 25.7415 32.7853 24.6237 33.1072 23.4426C33.2735 22.8352 33.6739 22.5392 34.304 22.5285C34.8242 22.5201 35.3444 22.5323 35.8646 22.5255C36.6648 22.514 37.2056 21.9814 37.214 21.1887C37.2216 20.402 37.2208 19.6154 37.214 18.8287C37.2071 18.0299 36.6732 17.495 35.8753 17.4828C35.368 17.4752 34.86 17.4851 34.3528 17.4797C33.6724 17.4729 33.2796 17.1852 33.1011 16.5382C32.7792 15.3708 32.3207 14.2629 31.722 13.2115C31.378 12.608 31.4428 12.1563 31.9241 11.6611C32.278 11.2971 32.6457 10.9469 32.9989 10.5815C33.574 9.98631 33.5725 9.2462 32.992 8.65411C32.4497 8.10094 31.9027 7.5531 31.3497 7.01137C30.7601 6.43378 30.021 6.43683 29.4214 7.01519C29.066 7.35854 28.722 7.71562 28.3696 8.06203C27.857 8.56561 27.4077 8.63504 26.7914 8.28406C25.7395 7.68434 24.6312 7.22807 23.4649 6.90608C22.8364 6.73212 22.5397 6.33688 22.5305 5.68604C22.5229 5.17865 22.5328 4.67049 22.5275 4.16309C22.5183 3.33829 21.9889 2.80038 21.1743 2.79351C20.3871 2.7874 19.6007 2.78588 18.8135 2.79427C18.0393 2.80343 17.5008 3.33982 17.4863 4.11197C17.4764 4.61937 17.4863 5.12753 17.4825 5.63492C17.4771 6.34222 17.1964 6.72525 16.5244 6.91142C15.3703 7.23264 14.2727 7.68205 13.233 8.27796C12.6114 8.63428 12.1598 8.56942 11.6526 8.07271C11.2895 7.71791 10.9394 7.35015 10.5732 6.9984C9.99199 6.44065 9.24981 6.43989 8.67315 7.00298C8.10946 7.55234 7.55263 8.10857 7.0042 8.67166C6.44355 9.24773 6.44508 9.98555 7.00496 10.5731C7.35507 10.9401 7.72349 11.2903 8.07895 11.6535C8.56636 12.1509 8.63654 12.6004 8.29634 13.2001C7.69298 14.2637 7.22845 15.3823 6.9058 16.5626C6.74028 17.1677 6.33753 17.4683 5.71053 17.479C5.19031 17.4874 4.66933 17.4759 4.14912 17.4828C3.34897 17.4927 2.80816 18.0238 2.79901 18.8165C2.78986 19.6161 2.78833 20.4158 2.79977 21.2154Z" fill="white"/>
<path d="M19.9882 11.5264C24.664 11.5104 28.4596 15.2857 28.4817 19.9751C28.5038 24.6645 24.6991 28.4818 20.0049 28.4803C15.3238 28.4795 11.5374 24.695 11.5313 20.011C11.5252 15.3292 15.2994 11.5424 19.9882 11.5264ZM19.995 26.1966C23.4176 26.205 26.1911 23.4407 26.1979 20.014C26.2048 16.5882 23.4458 13.8185 20.0179 13.8101C16.593 13.8024 13.8226 16.563 13.815 19.9919C13.8074 23.4163 16.5679 26.1882 19.995 26.1966Z" fill="white"/>
</g>
<defs>
<clipPath id="clip0_2681_8342">
<rect width="39" height="39" fill="white" transform="matrix(-1 0 0 1 39.5 0.5)"/>
</clipPath>
</defs>
</svg>
