<svg width="63" height="40" viewBox="0 0 63 40" fill="none" xmlns="http://www.w3.org/2000/svg">
<g clip-path="url(#clip0_2681_8329)">
<path d="M62.4564 21.554C62.4116 21.3036 62.391 21.0472 62.3184 20.8065C61.7105 18.7867 60.4136 17.4951 58.2993 17.0762C58.2048 17.0569 58.1418 17.0341 58.114 16.9221C57.6163 14.9264 57.115 12.9319 56.6136 10.9361C56.6088 10.9169 56.6039 10.8976 56.5991 10.8783C56.5519 10.6617 56.5543 10.6653 56.7529 10.5714C57.0883 10.4125 57.3051 10.1525 57.3087 9.77815C57.3123 9.23287 57.3257 8.68157 57.2603 8.14232C57.0992 6.82426 56.3811 5.85407 55.2562 5.16917C54.635 4.79 53.9496 4.62991 53.2254 4.6287C50.8447 4.6275 48.464 4.6287 46.0833 4.6287H45.9247V4.32417C45.9211 3.66694 45.9368 3.00972 45.9077 2.35491C45.869 1.45454 45.1666 0.702222 44.2754 0.557778C44.2136 0.546944 44.1543 0.519259 44.0938 0.5H6.46387C6.41543 0.520463 6.36941 0.550556 6.31977 0.558981C5.85961 0.63 5.46969 0.83463 5.15605 1.17528C4.77098 1.59417 4.64262 2.10213 4.64262 2.65704C4.64262 8.22898 4.64262 13.8009 4.64262 19.3729C4.64262 19.6088 4.63535 19.8447 4.64867 20.0794C4.67531 20.5525 5.0943 20.9521 5.56051 20.963C6.08484 20.975 6.50625 20.6319 6.5559 20.1312C6.57769 19.9085 6.56316 19.681 6.56316 19.4559C6.56437 13.9345 6.56316 8.41315 6.56316 2.89056V2.43796H43.9714V2.71602C43.9714 8.34815 43.9714 13.9803 43.9727 19.6124C43.9727 19.7821 43.9811 19.9543 44.0017 20.1228C44.0477 20.4863 44.2487 20.7439 44.5842 20.8871C44.9281 21.0328 45.2575 20.981 45.5529 20.7571C45.8375 20.5417 45.9344 20.2407 45.9283 19.8965C45.9235 19.5727 45.9283 19.2489 45.9283 18.9167H46.0639C49.8832 18.9167 53.7025 18.9155 57.5218 18.9191C57.9445 18.9191 58.3586 19.013 58.734 19.1983C59.5029 19.5775 60.0745 20.1505 60.376 20.9642C60.3893 20.9991 60.3966 21.0352 60.4099 21.0833H60.2271C59.3092 21.0833 58.3913 21.0797 57.4734 21.0845C56.8425 21.0881 56.4259 21.4842 56.4223 22.0848C56.4175 22.7914 56.4126 23.4992 56.4296 24.2057C56.4526 25.1807 56.8691 25.9583 57.6659 26.5325C58.2254 26.9369 58.843 27.1572 59.5417 27.1416C59.8771 27.1331 60.2137 27.1404 60.5504 27.1404V31.381C60.5238 31.387 60.5092 31.3931 60.4959 31.3931C59.6979 31.3931 58.9011 31.3979 58.1043 31.3931C58.0571 31.3919 57.9905 31.3353 57.9663 31.2883C57.8936 31.1415 57.8427 30.9826 57.7737 30.8321C56.6814 28.4548 54.0864 26.9779 51.5144 27.3257C49.0634 27.6556 47.3887 29.0073 46.4551 31.2775C46.4369 31.322 46.3909 31.3846 46.3534 31.3882C46.2105 31.4015 46.0664 31.3931 45.9295 31.3931V31.1932C45.9295 28.9363 45.9271 26.6794 45.9247 24.4224C45.9247 24.2828 45.9271 24.1407 45.9126 24.0023C45.8726 23.6244 45.6655 23.3583 45.312 23.2235C44.9414 23.0827 44.5975 23.1501 44.3008 23.4149C44.0344 23.6532 43.9739 23.971 43.9739 24.3044C43.9739 26.6324 43.9763 28.9592 43.9775 31.2859C43.9787 31.3196 43.9702 31.3533 43.9666 31.3846H29.8229C27.9411 31.3858 26.0593 31.3882 24.1775 31.3919C23.8493 31.3919 23.8493 31.3931 23.7197 31.0921C23.7076 31.0644 23.6979 31.0368 23.6858 31.0091C22.5693 28.4211 19.8617 26.9406 17.2218 27.345C14.8436 27.7097 13.2064 29.0398 12.2994 31.2546C12.2534 31.3678 12.1928 31.4051 12.0754 31.4003C11.7678 31.3894 11.4602 31.3858 11.1514 31.3858C9.68859 31.3834 8.22578 31.3822 6.76297 31.3858C6.61766 31.3858 6.57406 31.3461 6.57527 31.2017C6.57769 30.6203 6.56801 30.0389 6.56438 29.4563C6.56316 29.3732 6.57285 29.2902 6.57891 29.1999C6.61766 29.1963 6.64672 29.1915 6.67699 29.1915C7.99812 29.1939 9.32047 29.1975 10.6416 29.1987C10.7373 29.1987 10.8341 29.1915 10.9286 29.1794C11.4239 29.1096 11.775 28.6919 11.7617 28.1924C11.7484 27.7169 11.3524 27.3137 10.862 27.2788C10.7615 27.2716 10.661 27.2692 10.5605 27.2692H1.70609C1.61527 27.2692 1.52324 27.2692 1.43363 27.2764C1.01586 27.3053 0.681641 27.5749 0.561758 27.9733C0.546016 28.0251 0.520586 28.0744 0.5 28.125V28.2755C0.549648 28.4199 0.5775 28.5788 0.653789 28.7076C0.859648 29.0506 1.18055 29.2011 1.58016 29.2011C2.55375 29.1999 3.52734 29.2035 4.50094 29.1987C4.62082 29.1975 4.64383 29.2348 4.64383 29.3431C4.6402 29.9847 4.63898 30.6263 4.64383 31.2679C4.64988 32.22 5.17301 32.9422 6.08484 33.2311C6.27738 33.2925 6.49172 33.3082 6.69516 33.3094C8.40016 33.3142 10.1064 33.3106 11.8114 33.3094C11.8259 33.3094 11.8404 33.3142 11.8755 33.319C11.9264 34.8958 12.4277 36.3102 13.5176 37.4814C14.6002 38.6454 15.937 39.3231 17.5403 39.4531C17.4301 39.4687 17.3211 39.4844 17.2109 39.5H18.7549C18.6846 39.4807 18.6144 39.4615 18.5442 39.4422C18.7936 39.4121 19.0467 39.3965 19.2925 39.3471C21.7435 38.8524 23.6991 36.8157 24.0854 34.359C24.1314 34.0617 24.1545 33.7619 24.1763 33.4622C24.1835 33.3503 24.2102 33.3094 24.3337 33.3094C29.4584 33.313 34.583 33.313 39.7077 33.313C41.7748 33.313 43.8431 33.3142 45.9114 33.3106C46.0337 33.3106 46.0615 33.3491 46.0664 33.4646C46.1184 34.7815 46.5071 35.9852 47.3161 37.0384C48.2654 38.2746 49.5139 39.0486 51.0482 39.3628C51.2044 39.3953 51.3679 39.3989 51.5277 39.4157C51.5858 39.4218 51.6439 39.4314 51.6984 39.4531C51.5955 39.4687 51.4926 39.4844 51.3896 39.5H52.9033C52.8404 39.4795 52.7786 39.4591 52.7168 39.4386C52.9481 39.4121 53.1843 39.4061 53.4107 39.3544C55.9137 38.785 57.4782 37.2419 58.1721 34.8007C58.298 34.3578 58.3453 33.9064 58.3489 33.449C58.3501 33.3358 58.3864 33.3069 58.4979 33.3069C59.4557 33.313 60.4148 33.2985 61.3726 33.3178C61.9938 33.331 62.4128 32.9494 62.4818 32.4511C62.483 32.4427 62.4939 32.4355 62.5 32.4282V21.4444C62.4855 21.4806 62.4709 21.5167 62.4564 21.554ZM45.9344 6.55824H46.2311C48.5561 6.55704 50.8811 6.5787 53.2061 6.54741C54.3346 6.53176 55.2719 7.45741 55.3736 8.40232C55.4112 8.75019 55.4269 8.74657 55.083 8.74657H45.9344V6.55824ZM55.7103 16.9763C52.5885 16.9775 49.4667 16.9775 46.3437 16.9775C46.248 16.9775 46.1511 16.9655 46.0567 16.9775C45.955 16.9895 45.9235 16.9594 45.9235 16.8583C45.9283 14.853 45.9307 12.8476 45.9271 10.841C45.9271 10.7002 45.9707 10.6689 46.1075 10.6689C48.877 10.6713 51.6464 10.6701 54.4158 10.6653C54.532 10.6653 54.578 10.6978 54.6071 10.8145C55.1145 12.8392 55.6279 14.8626 56.1389 16.8872C56.145 16.9101 56.145 16.9342 56.1498 16.9763H55.7103ZM18.0622 37.562C15.736 37.5789 13.8784 35.7589 13.8239 33.4658C13.7707 31.2053 15.621 29.1891 18.0441 29.1915C20.3388 29.1927 22.217 31.0331 22.2521 33.3226C22.292 35.8576 20.1136 37.6006 18.0622 37.562ZM52.1998 37.5584C49.9959 37.5885 47.9954 35.8143 48.0039 33.3539C48.0136 30.932 50.0201 29.1674 52.2518 29.1915C54.5272 29.218 56.432 31.0608 56.4247 33.3623C56.4162 35.7324 54.5332 37.5861 52.1998 37.5584ZM60.5577 25.1904C60.5383 25.1976 60.5201 25.2084 60.502 25.2084C60.1447 25.2084 59.7863 25.2156 59.4291 25.2048C58.8224 25.1868 58.3973 24.7522 58.361 24.1034C58.3429 23.7784 58.3538 23.4522 58.361 23.1272C58.3622 23.0911 58.4264 23.0249 58.4615 23.0249C59.1469 23.0177 59.8323 23.0177 60.5165 23.0177C60.5262 23.0177 60.5346 23.0249 60.5577 23.0345V25.1904Z" fill="white"/>
<path d="M34.3421 11.2815C34.25 11.4103 34.1326 11.5246 34.0187 11.6378C31.0519 14.5893 28.0839 17.5395 25.1147 20.4898C25.03 20.5741 24.9428 20.6595 24.8507 20.7378C24.4911 21.0459 23.9934 21.0459 23.6374 20.7318C23.4787 20.5921 23.3358 20.4357 23.1857 20.2876C21.6078 18.7204 20.0312 17.1532 18.4533 15.5859C18.0283 15.1634 18.0029 14.5832 18.394 14.1776C18.727 13.8321 19.2792 13.7924 19.6594 14.0897C19.7382 14.1511 19.8084 14.2257 19.8798 14.2956C21.3124 15.7159 22.7449 17.1351 24.1774 18.5555C24.198 18.5759 24.221 18.5952 24.2937 18.6602C24.772 18.1667 25.2334 17.6756 25.7105 17.2013C27.9592 14.9612 30.2128 12.7259 32.4639 10.4882C32.6068 10.3462 32.7448 10.1994 32.8877 10.0597C33.2607 9.69621 33.8008 9.67093 34.1907 9.99593C34.577 10.3173 34.6448 10.8602 34.3421 11.2815Z" fill="white"/>
<path d="M41.793 28.2084C41.8039 28.6911 41.443 29.1136 40.9586 29.181C40.8787 29.1918 40.7976 29.1991 40.7176 29.1991C35.955 29.2003 31.1936 29.1967 26.431 29.2051C25.7371 29.2063 25.3387 28.7152 25.3545 28.2024C25.369 27.7269 25.7517 27.3189 26.2264 27.2816C26.3475 27.2719 26.4685 27.2695 26.5896 27.2695H40.5893C40.6946 27.2695 40.8012 27.2731 40.9066 27.2816C41.3873 27.3189 41.7808 27.7318 41.793 28.2084Z" fill="white"/>
<path d="M16.0739 25.0587C15.6973 25.078 15.3182 25.0635 14.9404 25.0635H9.79514V25.0744C7.71839 25.0744 5.64042 25.0744 3.56245 25.0744C3.01389 25.0744 2.57796 24.6663 2.56706 24.1331C2.55495 23.6131 2.97635 23.1761 3.51401 23.1581C3.76104 23.1496 4.00807 23.1569 4.2551 23.1569C8.11921 23.1557 11.9821 23.1605 15.8462 23.1484C16.5183 23.1484 16.8694 23.5806 16.9276 23.9874C17.0039 24.517 16.6127 25.0298 16.0739 25.0587Z" fill="white"/>
<path d="M54.2099 33.3923C54.2136 34.4744 53.3175 35.3676 52.2204 35.3736C51.116 35.3796 50.2126 34.4937 50.2078 33.3983C50.2041 32.2801 51.0954 31.3845 52.2131 31.3857C53.3211 31.3857 54.2051 32.2741 54.2099 33.3923Z" fill="white"/>
<path d="M20.0409 33.4369C20.0385 34.4974 19.1194 35.3773 18.0174 35.3737C16.9288 35.3701 16.0315 34.4697 16.0315 33.3815C16.0315 32.2934 16.9445 31.3774 18.0477 31.3858C19.169 31.3942 20.0421 32.2934 20.0409 33.4369Z" fill="white"/>
</g>
<defs>
<clipPath id="clip0_2681_8329">
<rect width="62" height="39" fill="white" transform="translate(0.5 0.5)"/>
</clipPath>
</defs>
</svg>
